<svg width="107" height="17" viewBox="0 0 107 17" fill="none" xmlns="http://www.w3.org/2000/svg">
<path d="M5.44531 16.4922C4.91406 16.4922 4.38281 16.3984 3.85156 16.2109C3.33594 16.0234 2.83594 15.75 2.35156 15.3906C1.86719 15.0156 1.44531 14.5234 1.08594 13.9141C0.726562 13.3047 0.53125 12.5781 0.5 11.7344V3.27344C0.5 2.83594 0.65625 2.47656 0.96875 2.19531C1.29688 1.89844 1.67969 1.75 2.11719 1.75C3.05469 1.82813 3.5625 2.33594 3.64062 3.27344V11.5469C3.65625 11.9219 3.73438 12.2422 3.875 12.5078C4.01562 12.7578 4.17188 12.9609 4.34375 13.1172C4.51562 13.2578 4.6875 13.3672 4.85938 13.4453C5.04688 13.5078 5.23438 13.5391 5.42188 13.5391C5.60938 13.5391 5.79688 13.5078 5.98438 13.4453C6.17188 13.3672 6.35156 13.2578 6.52344 13.1172C6.69531 12.9609 6.85156 12.7578 6.99219 12.5078C7.13281 12.2422 7.20312 11.9219 7.20312 11.5469V3.27344C7.20312 2.83594 7.35938 2.47656 7.67188 2.19531C8 1.89844 8.38281 1.75 8.82031 1.75C9.75781 1.82813 10.2734 2.33594 10.3672 3.27344V11.5469C10.3828 11.9219 10.4609 12.2344 10.6016 12.4844C10.7422 12.75 10.8984 12.9609 11.0703 13.1172C11.2422 13.2578 11.4141 13.3672 11.5859 13.4453C11.7734 13.5078 11.9609 13.5391 12.1484 13.5391C12.3359 13.5391 12.5234 13.5078 12.7109 13.4453C12.8984 13.3672 13.0781 13.2578 13.25 13.1172C13.4219 12.9609 13.5781 12.7578 13.7188 12.5078C13.8594 12.2422 13.9297 11.9219 13.9297 11.5469V3.27344C13.9297 2.83594 14.0859 2.47656 14.3984 2.19531C14.7266 1.89844 15.1094 1.75 15.5469 1.75C16.4844 1.82813 17 2.33594 17.0938 3.27344V11.7344C17.0938 12.5781 16.9062 13.3047 16.5312 13.9141C16.1719 14.5234 15.75 15.0156 15.2656 15.3906C14.7969 15.75 14.2969 16.0234 13.7656 16.2109C13.25 16.3984 12.7188 16.4922 12.1719 16.4922C11.6406 16.4922 11.1094 16.3984 10.5781 16.2109C10.0625 16.0234 9.5625 15.7422 9.07812 15.3672C8.98438 15.3047 8.89844 15.2344 8.82031 15.1562C8.72656 15.2344 8.64062 15.3047 8.5625 15.3672C8.07812 15.7422 7.57031 16.0234 7.03906 16.2109C6.52344 16.3984 5.99219 16.4922 5.44531 16.4922ZM22.5781 16.3281C21.9531 16.3281 21.4297 16.1094 21.0078 15.6719C20.6016 15.2344 20.3984 14.6875 20.3984 14.0312C20.3984 13.375 20.6016 12.8281 21.0078 12.3906C21.4297 11.9531 21.9531 11.7344 22.5781 11.7344C23.2031 11.7344 23.7266 11.9531 24.1484 12.3906C24.5703 12.8281 24.7812 13.375 24.7812 14.0312C24.7812 14.6875 24.5703 15.2344 24.1484 15.6719C23.7266 16.1094 23.2031 16.3281 22.5781 16.3281ZM31.1094 14.7109C31.0156 15.6484 30.5 16.1562 29.5625 16.2344C29.125 16.2344 28.7422 16.0938 28.4141 15.8125C28.1016 15.5156 27.9453 15.1484 27.9453 14.7109V3.64844C27.9609 3.21094 28.125 2.85156 28.4375 2.57031C28.75 2.27344 29.125 2.125 29.5625 2.125H39.4062C40.7812 2.17188 41.8203 2.47656 42.5234 3.03906C43.2266 3.58594 43.7344 4.21094 44.0469 4.91406C44.3594 5.61719 44.5156 6.32812 44.5156 7.04688C44.5156 7.79688 44.3594 8.52344 44.0469 9.22656C43.75 9.92969 43.2422 10.5625 42.5234 11.125C41.8203 11.6719 40.9219 11.9375 39.8281 11.9219H33.9219C33.4844 11.9219 33.1172 11.7656 32.8203 11.4531C32.5078 11.1562 32.3516 10.7891 32.3516 10.3516C32.3516 9.91406 32.5 9.54688 32.7969 9.25C33.1094 8.9375 33.4844 8.78125 33.9219 8.78125H39.9688C40.2656 8.78125 40.5078 8.6875 40.6953 8.5C40.8984 8.29688 41.0469 8.07031 41.1406 7.82031C41.2344 7.55469 41.2812 7.28906 41.2812 7.02344C41.2812 6.77344 41.2344 6.52344 41.1406 6.27344C41.0469 6.00781 40.8984 5.78125 40.6953 5.59375C40.5078 5.39062 40.2656 5.28125 39.9688 5.26562H31.7188C31.3125 5.28125 31.1094 5.48438 31.1094 5.875V14.7109ZM51.8516 15.9531C50.4766 15.9062 49.4375 15.5859 48.7344 14.9922C48.0312 14.3828 47.5234 13.7031 47.2109 12.9531C46.8984 12.1875 46.7422 11.4141 46.7422 10.6328C46.7422 9.82031 46.8906 9.03906 47.1875 8.28906C47.5 7.52344 48.0078 6.84375 48.7109 6.25C49.4297 5.64062 50.3359 5.32812 51.4297 5.3125H59.0234C60.1172 5.32812 61.0156 5.64062 61.7188 6.25C62.4375 6.84375 62.9453 7.52344 63.2422 8.28906C63.5547 9.03906 63.7109 9.82031 63.7109 10.6328C63.7109 11.4141 63.5547 12.1875 63.2422 12.9531C62.9297 13.7031 62.4219 14.3828 61.7188 14.9922C61.0156 15.5859 59.9766 15.9062 58.6016 15.9531H51.8516ZM51.3359 8.45312C51.0391 8.45312 50.7812 8.57812 50.5625 8.82812C50.3438 9.0625 50.1797 9.34375 50.0703 9.67188C49.9766 9.98438 49.9297 10.2969 49.9297 10.6094C49.9297 10.9375 49.9766 11.2656 50.0703 11.5938C50.1797 11.9062 50.3438 12.1875 50.5625 12.4375C50.7812 12.6719 51.0391 12.7969 51.3359 12.8125H59.1172C59.4141 12.7969 59.6719 12.6719 59.8906 12.4375C60.1094 12.1875 60.2656 11.9062 60.3594 11.5938C60.4688 11.2656 60.5234 10.9375 60.5234 10.6094C60.5234 10.2969 60.4688 9.98438 60.3594 9.67188C60.2656 9.34375 60.1094 9.0625 59.8906 8.82812C59.6719 8.57812 59.4141 8.45312 59.1172 8.45312H51.3359ZM68.0234 5.07812C68.4453 5.09375 68.8047 5.25 69.1016 5.54688C69.3984 5.82812 69.5547 6.17969 69.5703 6.60156V14.7109C69.4766 15.6484 68.9609 16.1562 68.0234 16.2344C67.5859 16.2344 67.2031 16.0938 66.875 15.8125C66.5625 15.5156 66.4062 15.1484 66.4062 14.7109V6.60156C66.4219 6.16406 66.5859 5.80469 66.8984 5.52344C67.2109 5.22656 67.5859 5.07812 68.0234 5.07812ZM66.0547 2.03125C66.0547 1.59375 66.2422 1.21875 66.6172 0.90625C66.9922 0.59375 67.4453 0.4375 67.9766 0.4375C68.5078 0.4375 68.9609 0.59375 69.3359 0.90625C69.7109 1.21875 69.8984 1.59375 69.8984 2.03125C69.8984 2.48438 69.7109 2.86719 69.3359 3.17969C68.9609 3.49219 68.5078 3.64844 67.9766 3.64844C67.4453 3.64844 66.9922 3.49219 66.6172 3.17969C66.2422 2.86719 66.0547 2.48438 66.0547 2.03125ZM79.9062 4.96094C80.7188 4.96094 81.5156 5.05469 82.2969 5.24219C83.0938 5.42969 83.8516 5.71094 84.5703 6.08594C85.2891 6.44531 85.9219 6.92969 86.4688 7.53906C87.0312 8.14844 87.3359 8.875 87.3828 9.71875V10.7031V14.7109C87.2891 15.6484 86.7734 16.1562 85.8359 16.2344C85.3984 16.2344 85.0156 16.0938 84.6875 15.8125C84.375 15.5156 84.2188 15.1484 84.2188 14.7109V13.6797V10.4453C84.1875 9.96094 84 9.5625 83.6562 9.25C83.3281 8.92188 82.9531 8.66406 82.5312 8.47656C82.125 8.28906 81.6953 8.14844 81.2422 8.05469C80.8047 7.96094 80.3594 7.91406 79.9062 7.91406C79.4531 7.91406 79 7.96094 78.5469 8.05469C78.1094 8.14844 77.6797 8.28906 77.2578 8.47656C76.8516 8.66406 76.4766 8.92188 76.1328 9.25C75.8047 9.5625 75.625 9.96094 75.5938 10.4453V13.6797V14.7109C75.5156 15.6484 75.0078 16.1562 74.0703 16.2344C73.6328 16.2344 73.25 16.0938 72.9219 15.8125C72.6094 15.5156 72.4531 15.1484 72.4531 14.7109V10.7031V9.71875C72.5 8.875 72.7969 8.14844 73.3438 7.53906C73.8906 6.92969 74.5234 6.44531 75.2422 6.08594C75.9609 5.71094 76.7109 5.42969 77.4922 5.24219C78.2891 5.05469 79.0938 4.96094 79.9062 4.96094ZM95.4453 1.75C95.8828 1.75 96.2578 1.89844 96.5703 2.19531C96.8828 2.47656 97.0469 2.83594 97.0625 3.27344V5.3125H105.031C105.469 5.3125 105.844 5.46094 106.156 5.75781C106.453 6.07031 106.602 6.44531 106.602 6.88281C106.602 7.32031 106.445 7.69531 106.133 8.00781C105.836 8.30469 105.469 8.45312 105.031 8.45312H97.0625V8.92188C97.0469 9.5625 97.0859 10.1562 97.1797 10.7031C97.2891 11.2344 97.5391 11.7109 97.9297 12.1328C98.3203 12.5547 98.8125 12.7812 99.4062 12.8125H105.125C105.562 12.8281 105.922 12.9922 106.203 13.3047C106.5 13.6172 106.648 13.9922 106.648 14.4297C106.633 14.8516 106.477 15.2109 106.18 15.5078C105.898 15.7891 105.547 15.9375 105.125 15.9531H98.6094C97.5156 15.8906 96.6094 15.5234 95.8906 14.8516C95.1875 14.1641 94.6797 13.3281 94.3672 12.3438C94.0703 11.3594 93.9141 10.3125 93.8984 9.20312V8.45312H91.2031C90.7656 8.45312 90.3984 8.29688 90.1016 7.98438C89.7891 7.6875 89.6328 7.32031 89.6328 6.88281C89.6328 6.44531 89.7812 6.07812 90.0781 5.78125C90.3906 5.46875 90.7656 5.3125 91.2031 5.3125H93.8984V3.27344C93.9141 2.85156 94.0703 2.5 94.3672 2.21875C94.6641 1.92188 95.0234 1.76562 95.4453 1.75Z" fill="#412C86"/>
</svg>
