<?xml version="1.0" encoding="utf-8"?>
<!DOCTYPE svg PUBLIC "-//W3C//DTD SVG 20010904//EN" "http://www.w3.org/TR/2001/REC-SVG-20010904/DTD/svg10.dtd">
<svg version="1.0" xmlns="http://www.w3.org/2000/svg" width="50pt" height="62pt" viewBox="0 0 50 62" style="" preserveAspectRatio="xMidYMid meet">
<g fill="#3CB64DFF" stroke="#3CB64DFF">
<path d="M 13.000 34.000 C 11.900 35.100 11.000 37.107 11.000 38.459 C 11.000 41.001 15.885 50.000 17.265 50.000 C 18.585 50.000 24.000 40.737 24.000 38.479 C 24.000 35.768 20.037 32.000 17.186 32.000 C 15.983 32.000 14.100 32.900 13.000 34.000 M 19.812 38.265 C 20.210 40.331 17.324 41.724 15.800 40.200 C 14.276 38.676 15.669 35.790 17.735 36.188 C 18.693 36.372 19.628 37.307 19.812 38.265 "/></g>
<g fill="#8B9EFFFF" stroke="#8B9EFFFF">
<path d="M 29.044 12.763 C 25.994 15.233 26.138 18.673 29.536 24.471 L 32.322 29.225 34.114 26.862 C 35.100 25.563 36.678 22.796 37.621 20.714 C 39.276 17.062 39.265 16.831 37.318 14.214 C 34.807 10.837 32.025 10.350 29.044 12.763 M 35.447 16.724 C 36.431 19.286 33.089 21.518 31.159 19.587 C 30.371 18.800 29.999 17.445 30.332 16.578 C 31.142 14.466 34.619 14.565 35.447 16.724 "/></g>
<g fill="#000000FF" stroke="#000000FF">
<path d="M 13.455 13.455 C 10.323 16.586 10.372 17.373 14.102 23.876 L 17.185 29.253 20.088 24.876 C 23.660 19.493 23.925 14.761 20.777 12.557 C 17.728 10.421 16.315 10.594 13.455 13.455 M 20.000 17.441 C 20.000 18.784 19.591 20.135 19.090 20.444 C 17.348 21.521 15.000 19.770 15.000 17.393 C 15.000 15.507 15.530 15.000 17.500 15.000 C 19.484 15.000 20.000 15.504 20.000 17.441 "/></g>
<g fill="#FBB041FF" stroke="#FBB041FF">
<path d="M 31.000 32.761 C 26.339 34.219 25.896 39.233 29.866 45.610 L 32.731 50.214 35.929 44.625 C 38.830 39.554 39.005 38.789 37.813 36.367 C 36.421 33.538 33.485 31.984 31.000 32.761 M 35.410 37.627 C 36.135 39.514 34.393 42.000 32.346 42.000 C 30.644 42.000 29.569 39.564 30.362 37.500 C 31.131 35.496 34.626 35.584 35.410 37.627 "/></g>
<g fill="#3CB64DFF" stroke="#3CB64DFF">
<path d="M 27.250 34.735 C 26.563 35.908 26.046 37.911 26.102 39.184 C 26.188 41.120 26.330 41.008 26.970 38.500 C 27.392 36.850 27.908 34.848 28.118 34.050 C 28.328 33.253 27.938 33.561 27.250 34.735 "/></g>
<g fill="#3CB64DFF" stroke="#3CB64DFF">
<path d="M 35.250 46.422 L 34.500 48.343 35.250 46.422 L 36.000 44.500 35.250 46.422 "/></g>
<g fill="#3CB64DFF" stroke="#3CB64DFF">
<path d="M 30.508 41.013 C 30.844 41.556 31.879 41.971 32.809 41.937 C 34.009 41.892 33.833 41.605 32.199 40.950 C 30.708 40.352 30.113 40.374 30.508 41.013 "/></g>
<g fill="#3CB64DFF" stroke="#3CB64DFF">
<path d="M 37.695 41.352 C 37.275 42.448 37.413 42.863 38.064 42.460 C 38.637 42.106 38.939 41.318 38.736 40.709 C 38.533 40.100 38.065 40.389 37.695 41.352 "/></g>
</svg>
